<svg id="visual" viewBox="0 0 900 600" width="900" height="600" xmlns="http://www.w3.org/2000/svg" xmlns:xlink="http://www.w3.org/1999/xlink" version="1.1"><path d="M0 368L21.5 362C43 356 86 344 128.8 346C171.7 348 214.3 364 257.2 370.2C300 376.3 343 372.7 385.8 376.5C428.7 380.3 471.3 391.7 514.2 387.2C557 382.7 600 362.3 642.8 364C685.7 365.7 728.3 389.3 771.2 395.3C814 401.3 857 389.7 878.5 383.8L900 378L900 601L878.5 601C857 601 814 601 771.2 601C728.3 601 685.7 601 642.8 601C600 601 557 601 514.2 601C471.3 601 428.7 601 385.8 601C343 601 300 601 257.2 601C214.3 601 171.7 601 128.8 601C86 601 43 601 21.5 601L0 601Z" fill="#99fa69"></path><path d="M0 462L21.5 450.5C43 439 86 416 128.8 410C171.7 404 214.3 415 257.2 413.8C300 412.7 343 399.3 385.8 399.7C428.7 400 471.3 414 514.2 424.8C557 435.7 600 443.3 642.8 446.7C685.7 450 728.3 449 771.2 447.8C814 446.7 857 445.3 878.5 444.7L900 444L900 601L878.5 601C857 601 814 601 771.2 601C728.3 601 685.7 601 642.8 601C600 601 557 601 514.2 601C471.3 601 428.7 601 385.8 601C343 601 300 601 257.2 601C214.3 601 171.7 601 128.8 601C86 601 43 601 21.5 601L0 601Z" fill="#73c54f"></path><path d="M0 474L21.5 474.2C43 474.3 86 474.7 128.8 475.3C171.7 476 214.3 477 257.2 471.7C300 466.3 343 454.7 385.8 452.8C428.7 451 471.3 459 514.2 456.7C557 454.3 600 441.7 642.8 435.5C685.7 429.3 728.3 429.7 771.2 433.5C814 437.3 857 444.7 878.5 448.3L900 452L900 601L878.5 601C857 601 814 601 771.2 601C728.3 601 685.7 601 642.8 601C600 601 557 601 514.2 601C471.3 601 428.7 601 385.8 601C343 601 300 601 257.2 601C214.3 601 171.7 601 128.8 601C86 601 43 601 21.5 601L0 601Z" fill="#4f9336"></path><path d="M0 516L21.5 515C43 514 86 512 128.8 514.2C171.7 516.3 214.3 522.7 257.2 521.8C300 521 343 513 385.8 514.3C428.7 515.7 471.3 526.3 514.2 528.3C557 530.3 600 523.7 642.8 513.3C685.7 503 728.3 489 771.2 492.8C814 496.7 857 518.3 878.5 529.2L900 540L900 601L878.5 601C857 601 814 601 771.2 601C728.3 601 685.7 601 642.8 601C600 601 557 601 514.2 601C471.3 601 428.7 601 385.8 601C343 601 300 601 257.2 601C214.3 601 171.7 601 128.8 601C86 601 43 601 21.5 601L0 601Z" fill="#2e631e"></path><path d="M0 550L21.5 552.8C43 555.7 86 561.3 128.8 564C171.7 566.7 214.3 566.3 257.2 568.3C300 570.3 343 574.7 385.8 571.2C428.7 567.7 471.3 556.3 514.2 550.2C557 544 600 543 642.8 539.7C685.7 536.3 728.3 530.7 771.2 531.8C814 533 857 541 878.5 545L900 549L900 601L878.5 601C857 601 814 601 771.2 601C728.3 601 685.7 601 642.8 601C600 601 557 601 514.2 601C471.3 601 428.7 601 385.8 601C343 601 300 601 257.2 601C214.3 601 171.7 601 128.8 601C86 601 43 601 21.5 601L0 601Z" fill="#103707"></path></svg>